<?xml version="1.0" encoding="UTF-8"?>
<svg xmlns="http://www.w3.org/2000/svg" xmlns:xlink="http://www.w3.org/1999/xlink" width="578.1pt" height="578pt" viewBox="0 0 578.1 578" version="1.1">
<g id="surface1">
<path style=" stroke:none;fill-rule:evenodd;fill:rgb(100%,0%,0%);fill-opacity:1;" d="M 41.585938 276.496094 C 41.585938 151.929688 155.128906 38.628906 279.457031 38.628906 L 298.820313 38.628906 C 423.253906 38.628906 536.6875 151.957031 536.6875 276.496094 L 536.6875 295.859375 C 536.6875 420.398438 423.253906 533.730469 298.820313 533.730469 L 279.457031 533.730469 C 154.941406 533.730469 41.585938 420.375 41.585938 295.859375 Z M 0.0976563 282.03125 L 0.0976563 293.09375 C 0.0976563 446.679688 131.402344 577.984375 284.988281 577.984375 L 293.285156 577.984375 C 451.425781 577.984375 578.175781 445.507813 578.175781 284.796875 C 578.175781 132.828125 447.167969 -0.09375 296.050781 -0.09375 C 134.519531 -0.09375 0.0976563 124.855469 0.0976563 282.03125 Z M 0.0976563 282.03125 "/>
<path style=" stroke:none;fill-rule:evenodd;fill:rgb(100%,100%,100%);fill-opacity:1;" d="M 279.457031 38.628906 C 155.128906 38.628906 41.585938 151.929688 41.585938 276.496094 L 41.585938 295.859375 C 41.585938 420.375 154.941406 533.730469 279.457031 533.730469 L 298.820313 533.730469 C 423.253906 533.730469 536.6875 420.398438 536.6875 295.859375 L 536.6875 276.496094 C 536.6875 151.957031 423.253906 38.628906 298.820313 38.628906 Z M 279.457031 38.628906 "/>
<path style=" stroke:none;fill-rule:evenodd;fill:rgb(0%,0%,0%);fill-opacity:1;" d="M 413.605469 246.074219 C 413.605469 217.269531 321.6875 195.203125 292.722656 186.6875 L 319.59375 146.519531 C 328.660156 152.589844 344.324219 179.691406 355.519531 179.691406 L 361.050781 179.691406 C 368.753906 179.691406 380.414063 168.03125 380.414063 160.328125 L 380.414063 154.796875 C 380.414063 148.988281 357.121094 122.605469 352.078125 116.75 C 340.917969 103.773438 337.578125 91.179688 314.03125 91.179688 C 292.027344 91.179688 182.84375 289.199219 156.371094 306.921875 C 150.695313 296.195313 143.261719 268.199219 128.714844 268.199219 L 125.949219 268.199219 C 114.109375 268.199219 103.820313 276.726563 103.820313 287.5625 C 103.820313 301.726563 132.621094 370.539063 148.074219 370.539063 L 153.605469 370.539063 C 175.6875 370.539063 211.089844 304.980469 222.753906 287.5625 L 327.859375 287.5625 C 314.082031 299.539063 242.117188 346.878906 242.117188 362.242188 C 242.117188 380.371094 252.335938 414.195313 257.039063 433.0625 C 262.214844 453.824219 266.582031 486.710938 289.136719 486.710938 L 294.667969 486.710938 C 301.121094 486.710938 308.5 479.328125 308.5 472.878906 L 308.5 464.582031 C 308.5 455.59375 289.65625 382.917969 286.371094 376.070313 L 344.222656 328.753906 C 342.636719 350.933594 324.007813 420.328125 355.519531 420.328125 L 363.816406 420.328125 C 376.980469 420.328125 413.066406 387.113281 424.152344 378.320313 C 437.171875 367.992188 474.453125 347.921875 474.453125 329.050781 L 474.453125 326.285156 C 474.453125 319.625 464.519531 309.6875 457.859375 309.6875 L 452.328125 309.6875 C 439.382813 309.6875 411.113281 335.285156 399.773438 342.878906 C 399.773438 312.183594 413.605469 284.367188 413.605469 254.371094 Z M 161.769531 153.839844 C 184.292969 153.839844 202.554688 172.605469 202.554688 195.75 C 202.554688 218.894531 184.292969 237.65625 161.769531 237.65625 C 139.242188 237.65625 120.984375 218.894531 120.984375 195.75 C 120.984375 172.605469 139.242188 153.839844 161.769531 153.839844 Z M 161.769531 153.839844 "/>
</g>
</svg>
